<?xml version="1.0" standalone="no"?>
<!DOCTYPE svg PUBLIC "-//W3C//DTD SVG 20010904//EN"
 "http://www.w3.org/TR/2001/REC-SVG-20010904/DTD/svg10.dtd">
<svg version="1.0" xmlns="http://www.w3.org/2000/svg" viewBox="0 0 158.000000 158.000000" preserveAspectRatio="xMidYMid meet">

<g transform="translate(0.000000,158.000000) scale(0.100000,-0.100000)"
fill="hsl(245, 75%, 52%)" stroke="none">
<path d="M0 790 l0 -790 790 0 790 0 0 790 0 790 -790 0 -790 0 0 -790z m1318
54 c38 -16 87 -56 103 -86 8 -14 -1 -24 -46 -54 l-56 -37 -30 29 c-22 21 -40
29 -68 29 -49 0 -71 -19 -71 -59 0 -43 24 -62 135 -115 145 -68 189 -122 189
-231 0 -97 -34 -148 -124 -189 -90 -41 -250 -22 -326 38 -26 21 -74 79 -74 91
0 3 28 21 61 39 l61 34 24 -31 c67 -85 224 -74 224 16 0 39 -28 62 -135 111
-141 66 -188 121 -189 226 -2 123 86 205 221 205 35 0 80 -7 101 -16z m-408
-59 l0 -65 -105 0 -105 0 -2 -302 -3 -303 -75 0 -75 0 -3 303 -2 302 -105 0
-105 0 0 65 0 65 290 0 290 0 0 -65z"/>
</g>
</svg>
