<svg viewBox="0 0 32 32" fill="none" xmlns="http://www.w3.org/2000/svg">
<path d="M4 26C3.44772 26 3 25.5523 3 25C3 24.4872 3.38604 24.0645 3.88338 24.0067L4 24L28 24C28.5523 24 29 24.4477 29 25C29 25.5128 28.614 25.9355 28.1166 25.9933L28 26H4Z" fill="#348BEE"/>
<path fill-rule="evenodd" clip-rule="evenodd" d="M8 6H24C25.6569 6 27 7.34315 27 9V19C27 20.6569 25.6569 22 24 22H8C6.34315 22 5 20.6569 5 19V9C5 7.34315 6.34315 6 8 6ZM24 8H8C7.44772 8 7 8.44772 7 9V19C7 19.5523 7.44772 20 8 20H24C24.5523 20 25 19.5523 25 19V9C25 8.44772 24.5523 8 24 8Z" fill="#348BEE"/>
</svg>
